<svg width="25" height="31" viewBox="0 0 25 31" fill="none" xmlns="http://www.w3.org/2000/svg">
<path d="M22.1459 28.1262C22.7274 27.7905 23.1502 27.2347 23.3211 26.5811C23.492 25.9275 23.3972 25.2296 23.0574 24.6411L21.7761 22.4219C21.4363 21.8333 20.8794 21.4022 20.2279 21.2235C19.5764 21.0447 18.8837 21.1329 18.3021 21.4687C13.9167 24.0006 11.3542 19.5622 10.0729 17.343C8.79169 15.1238 6.22919 10.6854 10.6146 8.15351C11.1962 7.81776 11.6189 7.26194 11.7899 6.60835C11.9608 5.95476 11.8659 5.25692 11.5261 4.66835L10.2449 2.44916C9.90505 1.8606 9.34814 1.42952 8.69664 1.25075C8.04515 1.07199 7.35243 1.16019 6.77089 1.49594C1.28908 4.66086 -0.71875 8.779 5.6875 19.875C12.0938 30.9709 16.6641 31.2911 22.1459 28.1262Z" stroke="#1F2B6C" stroke-width="2" stroke-linecap="round" stroke-linejoin="round"/>
</svg>
