<svg width="28" height="28" viewBox="0 0 28 28" fill="none" xmlns="http://www.w3.org/2000/svg">
<path d="M9.76014 13.0533C9.63517 13.1773 9.53598 13.3247 9.46829 13.4872C9.40059 13.6497 9.36574 13.824 9.36574 14C9.36574 14.176 9.40059 14.3503 9.46829 14.5127C9.53598 14.6752 9.63517 14.8227 9.76014 14.9466C10.01 15.195 10.3479 15.3344 10.7001 15.3344C11.0524 15.3344 11.3903 15.195 11.6401 14.9466C11.7651 14.8227 11.8643 14.6752 11.932 14.5127C11.9997 14.3503 12.0345 14.176 12.0345 14C12.0345 13.824 11.9997 13.6497 11.932 13.4872C11.8643 13.3247 11.7651 13.1773 11.6401 13.0533C11.3903 12.805 11.0524 12.6656 10.7001 12.6656C10.3479 12.6656 10.01 12.805 9.76014 13.0533ZM13.0535 16.36C12.8051 16.6098 12.6658 16.9477 12.6658 17.3C12.6658 17.6522 12.8051 17.9902 13.0535 18.24C13.1774 18.3649 13.3249 18.4641 13.4874 18.5318C13.6499 18.5995 13.8241 18.6344 14.0001 18.6344C14.1762 18.6344 14.3504 18.5995 14.5129 18.5318C14.6754 18.4641 14.8229 18.3649 14.9468 18.24C15.1951 17.9902 15.3345 17.6522 15.3345 17.3C15.3345 16.9477 15.1951 16.6098 14.9468 16.36C14.8229 16.235 14.6754 16.1358 14.5129 16.0681C14.3504 16.0004 14.1762 15.9656 14.0001 15.9656C13.8241 15.9656 13.6499 16.0004 13.4874 16.0681C13.3249 16.1358 13.1774 16.235 13.0535 16.36ZM25.0535 3.02664C23.6031 1.56427 21.6446 0.717645 19.5856 0.663005C17.5267 0.608366 15.5261 1.34993 14.0001 2.73331C12.4813 1.36608 10.4968 0.631946 8.45377 0.681533C6.41078 0.73112 4.46422 1.56067 3.01347 2.99997C1.57216 4.45309 0.742606 6.40336 0.695482 8.4495C0.648359 10.4957 1.38725 12.482 2.76014 14C1.7337 15.1475 1.06019 16.5668 0.820422 18.0876C0.580653 19.6084 0.784814 21.1661 1.40841 22.5738C2.032 23.9814 3.04853 25.1793 4.33601 26.0235C5.6235 26.8677 7.12725 27.3225 8.66681 27.3333C10.6404 27.3354 12.5433 26.5981 14.0001 25.2666C15.5198 26.6378 17.5071 27.3743 19.5533 27.3247C21.5994 27.2751 23.5488 26.4431 25.0001 25C26.4396 23.5451 27.2667 21.5939 27.3114 19.5478C27.356 17.5016 26.6148 15.5162 25.2401 14C26.6148 12.4837 27.356 10.4983 27.3114 8.45216C27.2667 6.40603 26.4396 4.45482 25.0001 2.99997L25.0535 3.02664ZM23.1068 4.89331C24.034 5.84716 24.5714 7.11309 24.6133 8.4427C24.6552 9.7723 24.1988 11.0696 23.3335 12.08L15.9201 4.66664C16.9394 3.82095 18.2327 3.37718 19.5564 3.41893C20.8801 3.46068 22.1429 3.98507 23.1068 4.89331ZM4.89347 23.1066C3.96623 22.1528 3.42892 20.8869 3.38699 19.5572C3.34505 18.2276 3.80152 16.9304 4.66681 15.92L12.1335 23.3866C11.103 24.2373 9.79537 24.679 8.46008 24.6273C7.12479 24.5757 5.85522 24.0344 4.89347 23.1066ZM23.1068 23.1066C22.0945 24.0749 20.7476 24.6152 19.3468 24.6152C17.946 24.6152 16.5992 24.0749 15.5868 23.1066L4.92014 12.44C3.9268 11.4407 3.36925 10.089 3.36925 8.67997C3.36925 7.27098 3.9268 5.91924 4.92014 4.91997C5.91941 3.92663 7.27115 3.36908 8.68014 3.36908C10.0891 3.36908 11.4409 3.92663 12.4401 4.91997L23.1068 15.5866C24.1001 16.5859 24.6577 17.9376 24.6577 19.3466C24.6577 20.7556 24.1001 22.1074 23.1068 23.1066ZM16.3601 13.0533C16.2352 13.1773 16.136 13.3247 16.0683 13.4872C16.0006 13.6497 15.9657 13.824 15.9657 14C15.9657 14.176 16.0006 14.3503 16.0683 14.5127C16.136 14.6752 16.2352 14.8227 16.3601 14.9466C16.61 15.195 16.9479 15.3344 17.3001 15.3344C17.6524 15.3344 17.9903 15.195 18.2401 14.9466C18.3651 14.8227 18.4643 14.6752 18.532 14.5127C18.5997 14.3503 18.6345 14.176 18.6345 14C18.6345 13.824 18.5997 13.6497 18.532 13.4872C18.4643 13.3247 18.3651 13.1773 18.2401 13.0533C17.9903 12.805 17.6524 12.6656 17.3001 12.6656C16.9479 12.6656 16.61 12.805 16.3601 13.0533ZM13.0535 9.75997C12.8051 10.0098 12.6658 10.3477 12.6658 10.7C12.6658 11.0522 12.8051 11.3902 13.0535 11.64C13.1774 11.7649 13.3249 11.8641 13.4874 11.9318C13.6499 11.9995 13.8241 12.0344 14.0001 12.0344C14.1762 12.0344 14.3504 11.9995 14.5129 11.9318C14.6754 11.8641 14.8229 11.7649 14.9468 11.64C15.1951 11.3902 15.3345 11.0522 15.3345 10.7C15.3345 10.3477 15.1951 10.0098 14.9468 9.75997C14.8229 9.635 14.6754 9.53581 14.5129 9.46812C14.3504 9.40043 14.1762 9.36557 14.0001 9.36557C13.8241 9.36557 13.6499 9.40043 13.4874 9.46812C13.3249 9.53581 13.1774 9.635 13.0535 9.75997Z" fill="#159EEC"/>
</svg>
