<svg width="52" height="40" viewBox="0 0 52 40" fill="none" xmlns="http://www.w3.org/2000/svg">
<path d="M51 1.77087H1V31.7709H51V1.77087Z" stroke="#FCFEFE" stroke-width="2" stroke-linecap="round" stroke-linejoin="round"/>
<path d="M48.9166 31.9792H3.08325V35.1042H48.9166V31.9792Z" stroke="#FCFEFE" stroke-width="2" stroke-linecap="round" stroke-linejoin="round"/>
<path d="M46.8334 35.1042H5.16675V38.2292H46.8334V35.1042Z" stroke="#FCFEFE" stroke-width="2" stroke-linecap="round" stroke-linejoin="round"/>
<path d="M25.7489 28.0594C30.1889 28.0594 33.7881 23.1072 33.7881 16.9984C33.7881 10.8897 30.1889 5.9375 25.7489 5.9375C21.309 5.9375 17.7097 10.8897 17.7097 16.9984C17.7097 23.1072 21.309 28.0594 25.7489 28.0594Z" stroke="#FCFEFE" stroke-width="2" stroke-linecap="round" stroke-linejoin="round"/>
<path fill-rule="evenodd" clip-rule="evenodd" d="M9.98429 28.0594H42.0155C42.0155 25.005 44.4057 22.5289 47.3541 22.5289V11.468C44.4057 11.468 42.0155 8.9919 42.0155 5.9375H9.98429C9.98429 8.9919 7.59415 11.468 4.64575 11.468V22.5289C7.59415 22.5289 9.98429 25.005 9.98429 28.0594Z" stroke="#FCFEFE" stroke-width="2" stroke-linecap="round" stroke-linejoin="round"/>
<path d="M12.1826 18.5786C13.0151 18.5786 13.69 17.8712 13.69 16.9985C13.69 16.1258 13.0151 15.4183 12.1826 15.4183C11.3502 15.4183 10.6753 16.1258 10.6753 16.9985C10.6753 17.8712 11.3502 18.5786 12.1826 18.5786Z" stroke="#FCFEFE" stroke-width="2" stroke-linecap="round" stroke-linejoin="round"/>
<path d="M38.8125 18.5786C39.645 18.5786 40.3199 17.8712 40.3199 16.9985C40.3199 16.1258 39.645 15.4183 38.8125 15.4183C37.98 15.4183 37.3052 16.1258 37.3052 16.9985C37.3052 17.8712 37.98 18.5786 38.8125 18.5786Z" stroke="#FCFEFE" stroke-width="2" stroke-linecap="round" stroke-linejoin="round"/>
</svg>
